<svg xmlns="http://www.w3.org/2000/svg" width="800" height="600" viewBox="0 0 800 600" role="img" aria-label="Sample blog layout preview">
  <defs>
    <linearGradient id="bg" x1="0%" y1="0%" x2="100%" y2="100%">
      <stop offset="0%" style="stop-color:#eef2ff"/>
      <stop offset="100%" style="stop-color:#e0e7ff"/>
    </linearGradient>
  </defs>
  <rect width="800" height="600" fill="url(#bg)"/>
  <rect x="48" y="40" width="280" height="24" rx="6" fill="#6366f1" opacity="0.85"/>
  <rect x="48" y="88" width="520" height="18" rx="4" fill="#94a3b8" opacity="0.5"/>
  <rect x="48" y="118" width="420" height="18" rx="4" fill="#94a3b8" opacity="0.35"/>
  <rect x="48" y="168" width="704" height="200" rx="12" fill="#fff" stroke="#c7d2fe" stroke-width="2"/>
  <rect x="72" y="192" width="200" height="14" rx="3" fill="#6366f1" opacity="0.4"/>
  <rect x="72" y="220" width="656" height="10" rx="2" fill="#cbd5e1"/>
  <rect x="72" y="240" width="620" height="10" rx="2" fill="#cbd5e1"/>
  <rect x="72" y="260" width="580" height="10" rx="2" fill="#cbd5e1"/>
  <rect x="48" y="392" width="704" height="160" rx="12" fill="#fff" stroke="#c7d2fe" stroke-width="2"/>
  <rect x="72" y="416" width="180" height="12" rx="3" fill="#6366f1" opacity="0.35"/>
  <rect x="72" y="440" width="656" height="8" rx="2" fill="#e2e8f0"/>
  <rect x="72" y="456" width="500" height="8" rx="2" fill="#e2e8f0"/>
</svg>
